<?xml version="1.0" encoding="UTF-8" standalone="no"?>
<svg
   xmlns:dc="http://purl.org/dc/elements/1.1/"
   xmlns:cc="http://creativecommons.org/ns#"
   xmlns:rdf="http://www.w3.org/1999/02/22-rdf-syntax-ns#"
   xmlns:svg="http://www.w3.org/2000/svg"
   xmlns="http://www.w3.org/2000/svg"
   xmlns:sodipodi="http://sodipodi.sourceforge.net/DTD/sodipodi-0.dtd"
   xmlns:inkscape="http://www.inkscape.org/namespaces/inkscape"
   width="40"
   height="40"
   viewBox="0 0 40 40"
   fill="none"
   version="1.1"
   id="svg36"
   sodipodi:docname="logo-notext.svg"
   inkscape:version="1.0.2 (394de47547, 2021-03-26)">
  <g
     id="g855"
     transform="matrix(1.1033874,0,0,1.1031056,-2.0672348,-2.0682957)">
    <path
       d="m 38.125,19.8876 c 0.0244,3.1666 -0.7852,6.2838 -2.3476,9.0383 -0.2024,0.3578 -0.4167,0.7078 -0.643,1.05 -0.1119,0.1739 -0.2572,0.3239 -0.4275,0.4412 -0.1702,0.1174 -0.3621,0.1998 -0.5645,0.2424 -0.2024,0.0426 -0.4112,0.0446 -0.6143,0.006 -0.2032,-0.0387 -0.3966,-0.1173 -0.5692,-0.2314 -0.1725,-0.114 -0.3207,-0.2611 -0.4359,-0.4328 -0.1153,-0.1717 -0.1953,-0.3646 -0.2355,-0.5675 -0.0401,-0.2028 -0.0396,-0.4116 0.0016,-0.6143 0.0412,-0.2027 0.1222,-0.3951 0.2383,-0.5663 1.4911,-2.2635 2.3411,-4.8888 2.4596,-7.5968 0.1184,-2.708 -0.4991,-5.3975 -1.7869,-7.7826 C 31.9123,10.4887 30.0022,8.49708 27.673,7.11069 25.3438,5.7243 22.6825,4.99493 19.9719,5.0001 14.7618,5.01026 10.1422,7.74541 7.45706,11.8321 5.85189,14.2703 4.99772,17.1259 5.0005,20.045 c 0.00277,2.9191 0.86238,5.7732 2.47219,8.2082 0.22823,0.3459 0.3097,0.7684 0.22648,1.1743 -0.08322,0.406 -0.32431,0.7623 -0.67023,0.9906 C 6.68302,30.6463 6.2606,30.7278 5.85461,30.6445 5.44863,30.5613 5.09233,30.3202 4.8641,29.9743 3.0791,27.2655 2.05381,24.1272 1.89521,20.887 1.73662,17.6468 2.45053,14.4235 3.96245,11.5533 5.47437,8.68306 7.72889,6.27121 10.4907,4.56941 13.2526,2.86761 16.4206,1.93822 19.6641,1.87822 19.7782,1.87588 19.8914,1.8751 20.0047,1.8751 c 4.7902,-0.00987 9.3886,1.88127 12.7858,5.25831 3.3973,3.37709 5.3158,7.96409 5.3345,12.75419 z"
       fill="#494d4b"
       id="path18" />
    <path
       d="m 9.06588,22.7944 2.83192,14.0875 c 0.17,0.8457 0.9933,1.3934 1.839,1.2234 0.8457,-0.17 1.3935,-0.9934 1.2235,-1.839 L 12.1284,22.1788 c -0.17,-0.8457 -0.9934,-1.3935 -1.8391,-1.2235 -0.84567,0.17 -1.39342,0.9934 -1.22342,1.8391 z"
       fill="#04d361"
       id="path20" />
    <path
       d="m 11.8438,36.5641 -0.718,0.1445 C 10.059,36.9234 8.95038,36.7225 8.02677,36.147 7.10316,35.5715 6.43432,34.6648 6.15706,33.6125 6.13597,33.5313 6.11644,33.45 6.10003,33.3672 L 5.07112,28.2555 C 4.84815,27.1459 5.07485,25.9931 5.70141,25.0506 6.32796,24.108 7.3031,23.4528 8.41253,23.2289 l 0.71797,-0.1445 1.2594,6.2562 z"
       fill="#494d4b"
       id="path22" />
    <path
       d="m 11.8438,36.5641 -0.7179,0.1445 C 10.059,36.9234 8.95043,36.7225 8.02682,36.147 7.1032,35.5715 6.43437,34.6649 6.1571,33.6125 7.67448,32.2981 9.08951,30.87 10.3899,29.3407 Z"
       fill="#494d4b"
       id="path24" />
    <path
       d="m 36.1477,27.0875 -0.3703,1.8383 c -0.2024,0.3578 -0.4167,0.7078 -0.643,1.05 -0.1119,0.1739 -0.2572,0.3239 -0.4275,0.4413 -0.1703,0.1173 -0.3621,0.1997 -0.5645,0.2423 -0.2024,0.0426 -0.4112,0.0447 -0.6143,0.006 -0.2032,-0.0387 -0.3966,-0.1173 -0.5692,-0.2313 -0.1725,-0.114 -0.3207,-0.2612 -0.436,-0.4329 -0.1152,-0.1717 -0.1952,-0.3646 -0.2354,-0.5674 -0.0401,-0.2029 -0.0396,-0.4117 0.0016,-0.6144 0.0412,-0.2027 0.1221,-0.3951 0.2383,-0.5663 1.0591,-1.6029 1.7984,-3.3954 2.1773,-5.2789 0.588,0.4926 1.0324,1.1347 1.2863,1.8585 0.254,0.7239 0.3081,1.5028 0.1567,2.2548 z"
       fill="#494d4b"
       id="path26" />
    <path
       d="M 34.2953,8.82971 32.0539,11.0711 C 30.6573,9.1825 28.836,7.64891 26.7371,6.59426 24.6383,5.53962 22.3208,4.99349 19.9719,5.00002 14.7617,5.01017 10.1422,7.74533 7.45703,11.832 L 5.18359,9.55861 C 6.82274,7.22938 8.98843,5.31984 11.5046,3.98527 c 2.5161,-1.33458 5.3117,-2.05652 8.1595,-2.10713 0.114,-0.00234 0.2273,-0.00312 0.3406,-0.00312 2.7544,-0.00617 5.4739,0.61721 7.9506,1.82254 2.4768,1.20534 4.6453,2.96074 6.34,5.13215 z"
       fill="#8257e5"
       id="path28" />
    <path
       d="M 27.8464,22.1635 25.0145,36.251 c -0.17,0.8457 0.3777,1.6691 1.2234,1.8391 0.8457,0.17 1.6691,-0.3778 1.8391,-1.2235 l 2.8319,-14.0875 c 0.17,-0.8456 -0.3778,-1.669 -1.2235,-1.839 -0.8457,-0.17 -1.669,0.3777 -1.839,1.2234 z"
       fill="#04d361"
       id="path30" />
    <path
       d="M 34.9289,28.2555 33.9,33.3672 c -0.2234,1.1095 -0.8784,2.0849 -1.8209,2.7115 -0.9425,0.6267 -2.0953,0.8532 -3.2049,0.6299 l -0.718,-0.1445 0.7438,-3.693 1.9695,-9.7867 0.718,0.1445 c 1.1093,0.2242 2.0845,0.8791 2.7117,1.8211 0.0864,0.1299 0.1654,0.2644 0.2367,0.4031 0.4458,0.8623 0.5844,1.8507 0.393,2.8024 z"
       fill="#494d4b"
       id="path32" />
    <path
       d="M 34.9289,28.2555 33.9,33.3672 c -0.2234,1.1096 -0.8784,2.0849 -1.8209,2.7116 -0.9425,0.6266 -2.0953,0.8532 -3.2049,0.6298 l -0.718,-0.1445 0.7438,-3.693 c 2.1403,-2.2625 4.0299,-4.7496 5.6359,-7.418 0.4458,0.8623 0.5844,1.8508 0.393,2.8024 z"
       fill="#494d4b"
       id="path34" />
  </g>
  <metadata
     id="metadata42">
    <rdf:RDF>
      <cc:Work
         rdf:about="">
        <dc:format>image/svg+xml</dc:format>
        <dc:type
           rdf:resource="http://purl.org/dc/dcmitype/StillImage" />
        <dc:title></dc:title>
      </cc:Work>
    </rdf:RDF>
  </metadata>
  <defs
     id="defs40" />
  <sodipodi:namedview
     pagecolor="#ffffff"
     bordercolor="#666666"
     borderopacity="1"
     objecttolerance="10"
     gridtolerance="10"
     guidetolerance="10"
     inkscape:pageopacity="0"
     inkscape:pageshadow="2"
     inkscape:window-width="1366"
     inkscape:window-height="731"
     id="namedview38"
     showgrid="false"
     inkscape:zoom="5.4442885"
     inkscape:cx="49.114083"
     inkscape:cy="19.218699"
     inkscape:window-x="0"
     inkscape:window-y="0"
     inkscape:window-maximized="1"
     inkscape:current-layer="svg36"
     inkscape:document-rotation="0" />
</svg>
